<svg width="46" height="36" viewBox="0 0 46 36" fill="none" xmlns="http://www.w3.org/2000/svg">
<path d="M8.01381 23.4549L11.2742 23.4762C11.3962 23.477 11.5013 23.5245 11.5895 23.6187C11.6776 23.7129 11.7213 23.8244 11.7206 23.9531L11.6535 35.2923C11.6527 35.421 11.6077 35.5319 11.5184 35.6249C11.4292 35.718 11.3235 35.7641 11.2015 35.7633L7.94111 35.742C7.81912 35.7412 7.71405 35.6937 7.62588 35.5995C7.53772 35.5053 7.49401 35.3938 7.49478 35.2651L7.51721 31.4737L4.82237 31.456L4.79993 35.2475C4.79917 35.3762 4.75415 35.4871 4.66488 35.5801C4.57561 35.6731 4.46998 35.7193 4.34799 35.7185L1.08756 35.6971C0.965573 35.6964 0.860462 35.6547 0.772227 35.5722C0.684062 35.478 0.640395 35.3607 0.641226 35.2203L0.708315 23.8811C0.709077 23.7523 0.754094 23.6415 0.843367 23.5484C0.93264 23.4554 1.03827 23.4093 1.16026 23.4101L4.42069 23.4314C4.54268 23.4322 4.64775 23.4797 4.73592 23.5739C4.82408 23.6681 4.86778 23.7795 4.86702 23.9083L4.84521 27.5944L7.54006 27.612L7.56187 23.9259C7.56263 23.7972 7.60764 23.6863 7.69692 23.5932C7.78619 23.5002 7.89182 23.4541 8.01381 23.4549Z" fill="#494949"/>
<path d="M14.3349 23.4962L17.3458 23.5159C17.4678 23.5167 17.5729 23.5642 17.661 23.6584C17.7492 23.7526 17.7929 23.8641 17.7922 23.9928L17.7638 28.7847L20.6039 23.9409C20.7496 23.6727 20.9778 23.5397 21.2883 23.5417L23.9166 23.5589C24.0386 23.5597 24.1436 23.6072 24.2318 23.7014C24.32 23.7956 24.3637 23.907 24.3629 24.0357L24.2958 35.375C24.2951 35.5037 24.25 35.6146 24.1608 35.7076C24.0715 35.8006 23.9659 35.8467 23.8439 35.8459L20.833 35.8263C20.711 35.8255 20.6059 35.778 20.5177 35.6838C20.4296 35.5896 20.3859 35.4781 20.3866 35.3494L20.4127 30.9436L17.5749 35.4012C17.407 35.6693 17.1789 35.8024 16.8905 35.8005L14.2622 35.7833C14.1402 35.7825 14.0352 35.735 13.947 35.6408C13.8588 35.5466 13.8151 35.4351 13.8159 35.3064L13.883 23.9672C13.8837 23.8385 13.9287 23.7276 14.018 23.6346C14.1073 23.5415 14.2129 23.4954 14.3349 23.4962Z" fill="#494949"/>
<path d="M26.2267 35.8745C26.1047 35.8737 25.9477 35.8966 25.8484 35.8024C25.7602 35.7082 25.7357 35.6451 25.7365 35.5163L25.7201 32.9794C25.7209 32.8507 25.7659 32.7398 25.8552 32.6468C25.9444 32.5537 26.0501 32.5076 26.1721 32.5084C26.9927 32.5138 27.4057 32.0659 27.411 31.1649L27.4531 24.0559C27.4539 23.9272 27.4989 23.8163 27.5881 23.7233C27.6774 23.6303 27.783 23.5842 27.905 23.585L37.3536 23.6467C37.4756 23.6475 37.5807 23.695 37.6689 23.7892C37.757 23.8834 37.8007 23.9949 37.8 24.1236L37.7329 35.4628C37.7321 35.5915 37.6871 35.7024 37.5978 35.7955C37.5085 35.8885 37.4029 35.9346 37.2809 35.9338L34.0205 35.9125C33.8985 35.9117 33.7934 35.8642 33.7053 35.77C33.6171 35.6758 33.5734 35.5643 33.5742 35.4356L33.6212 27.4841L31.5918 27.4709L31.5701 31.1394C31.5604 32.7777 31.0706 34.0091 30.1009 34.8336C29.1312 35.6465 27.8791 35.8853 26.2267 35.8745Z" fill="#494949"/>
<path d="M30.8919 4.59183C30.8923 4.52919 31.1213 3.51797 31.3998 2.35048L31.9169 0.203145L37.871 0.273548C43.7016 0.342845 43.7699 0.343657 44.1559 0.575503C44.8906 0.997921 45.2649 1.67899 45.2597 2.54551C45.2545 3.4329 44.7843 4.21285 44.0352 4.58381C43.6656 4.75888 43.2678 4.77716 37.2735 4.73796C33.0057 4.71006 30.8915 4.66491 30.8919 4.59183Z" fill="#3B4651"/>
<path d="M22.7868 22.5361L24.4364 22.5469L24.07 21.7669L24.8803 20.9055L25.6902 21.3599C25.8783 21.466 26.0856 21.5268 26.2977 21.538C26.5098 21.5493 26.7217 21.5107 26.9186 21.4251C27.1155 21.3394 27.2927 21.2087 27.438 21.0419C27.5833 20.8752 27.6932 20.6764 27.76 20.4594L28.0584 19.5158L29.2004 19.5233L29.4876 20.4707C29.5518 20.6885 29.6593 20.8887 29.8026 21.0574C29.9459 21.226 30.1216 21.3591 30.3175 21.4473C30.5134 21.5355 30.7248 21.5769 30.937 21.5684C31.1492 21.5599 31.3572 21.5018 31.5465 21.3982L32.3837 20.9545L33.1838 21.8265L32.7887 22.6015L34.4321 22.6123L34.7053 22.0334C34.7722 21.8871 34.7952 21.722 34.7713 21.5609C34.7473 21.3999 34.6775 21.2508 34.5715 21.1343L33.0222 19.4458C32.9147 19.3286 32.7758 19.2505 32.6249 19.2227C32.4741 19.1949 32.3189 19.2186 32.1812 19.2906L30.8741 19.9833L30.4217 18.4912C30.3739 18.3356 30.2823 18.2 30.1595 18.1032C30.0367 18.0063 29.889 17.9531 29.7367 17.9509L27.5406 17.9365C27.3872 17.9351 27.2372 17.9856 27.1118 18.0809C26.9864 18.1763 26.8921 18.3116 26.842 18.4678L26.3721 19.9539L25.0732 19.2441C24.9372 19.1722 24.7838 19.1474 24.6342 19.1732C24.4846 19.1991 24.3461 19.2742 24.2378 19.3884L22.6686 21.0565C22.5597 21.1722 22.4871 21.3217 22.4612 21.4841C22.4353 21.6465 22.4573 21.8135 22.5242 21.9617L22.7868 22.5361Z" fill="#3B4651"/>
<path d="M18.1922 1.76297L16.9021 3.40411L18.4924 3.47715C19.4233 3.525 20.2182 3.60328 20.4214 3.68813C21.2826 4.04874 21.8321 4.61611 22.2435 5.57931C22.9322 7.21251 22.0952 9.32643 20.5202 9.94255C20.0049 10.1584 19.8206 10.1572 12.9243 10.1121L5.85336 10.0659L3.29883 13.933L0.744232 17.8105L0.724157 21.2035L7.05931 21.245L9.99497 21.2641L16.9901 21.3099L20.2686 21.3209L20.7098 20.5303C22.3372 17.6176 25.3644 15.8313 28.6525 15.8528C29.2054 15.8564 29.6613 15.8489 29.6614 15.828C29.6616 15.8072 29.5952 15.5457 29.5193 15.2529L29.3674 14.709L21.6563 14.6586C14.6242 14.6126 13.9162 14.5975 13.665 14.4288C13.1045 14.0702 13.0126 13.2135 13.4714 12.7154L13.7545 12.4144L21.1843 12.463C27.1786 12.5022 28.6142 12.4907 28.6149 12.3759C28.6153 12.3028 28.4064 11.5393 28.1398 10.6919L27.6738 9.13322L28.7083 4.77591C29.2851 2.37841 29.7529 0.366477 29.7533 0.303837C29.7537 0.230757 28.0371 0.188212 24.6132 0.165823L19.4822 0.132272L18.1922 1.76297Z" fill="#3B4651"/>
<path d="M1.9131 7.14815C1.73146 6.69803 1.87034 6.17692 2.24078 5.86613C2.4845 5.65892 2.62029 5.65981 11.1655 5.71568L19.8465 5.77244L20.126 6.07704C20.5789 6.58114 20.4768 7.43658 19.9122 7.78786C19.659 7.95325 18.8927 7.95868 11.1331 7.90794C10.6303 7.90465 10.1556 7.90167 9.70747 7.89885L9.7026 7.89882C3.09082 7.85725 2.26969 7.85208 2.03057 7.4479C1.99666 7.39059 1.97446 7.32525 1.94911 7.25065C1.9381 7.21826 1.9265 7.18413 1.9131 7.14815Z" fill="#276FB1"/>
<path d="M30.0764 7.99005L29.8177 9.08459L30.8072 12.3485C31.3494 14.1477 31.7956 15.7898 31.7944 15.9986C31.7921 16.38 31.8016 16.3849 32.5932 16.7922L32.6238 16.8079C33.6005 17.3154 34.4599 17.9579 35.1248 18.7035L35.5969 19.2391L37.8084 19.2535C39.0208 19.2615 40.0199 19.2576 40.0201 19.2367C40.0201 19.227 40.1083 18.6356 40.2519 17.6725L40.252 17.6716L40.253 17.6652C40.4205 16.5412 40.6632 14.9135 40.9293 13.1141C41.4341 9.76609 41.8384 7.01248 41.8385 6.9916C41.8386 6.97072 39.2489 6.94335 36.0869 6.92267L30.3351 6.88506L30.0764 7.99005Z" fill="#494949"/>
<path d="M30.8919 4.59183C30.8923 4.52919 31.1213 3.51797 31.3998 2.35048L31.9169 0.203145L37.871 0.273548C43.7016 0.342845 43.7699 0.343657 44.1559 0.575503C44.8906 0.997921 45.2649 1.67899 45.2597 2.54551C45.2545 3.4329 44.7843 4.21285 44.0352 4.58381C43.6656 4.75888 43.2678 4.77716 37.2735 4.73796C33.0057 4.71006 30.8915 4.66491 30.8919 4.59183Z" fill="#E93535"/>
<path d="M22.7868 22.5361L24.4364 22.5469L24.07 21.7669L24.8803 20.9055L25.6902 21.3599C25.8783 21.466 26.0856 21.5268 26.2977 21.538C26.5098 21.5493 26.7217 21.5107 26.9186 21.4251C27.1155 21.3394 27.2927 21.2087 27.438 21.0419C27.5833 20.8752 27.6932 20.6764 27.76 20.4594L28.0584 19.5158L29.2004 19.5233L29.4876 20.4707C29.5518 20.6885 29.6593 20.8887 29.8026 21.0574C29.9459 21.226 30.1216 21.3591 30.3175 21.4473C30.5134 21.5355 30.7248 21.5769 30.937 21.5684C31.1492 21.5599 31.3572 21.5018 31.5465 21.3982L32.3837 20.9545L33.1838 21.8265L32.7887 22.6015L34.4321 22.6123L34.7053 22.0334C34.7722 21.8871 34.7952 21.722 34.7713 21.5609C34.7473 21.3999 34.6775 21.2508 34.5715 21.1343L33.0222 19.4458C32.9147 19.3286 32.7758 19.2505 32.6249 19.2227C32.4741 19.1949 32.3189 19.2186 32.1812 19.2906L30.8741 19.9833L30.4217 18.4912C30.3739 18.3356 30.2823 18.2 30.1595 18.1032C30.0367 18.0063 29.889 17.9531 29.7367 17.9509L27.5406 17.9365C27.3872 17.9351 27.2372 17.9856 27.1118 18.0809C26.9864 18.1763 26.8921 18.3116 26.842 18.4678L26.3721 19.9539L25.0732 19.2441C24.9372 19.1722 24.7838 19.1474 24.6342 19.1732C24.4846 19.1991 24.3461 19.2742 24.2378 19.3884L22.6686 21.0565C22.5597 21.1722 22.4871 21.3217 22.4612 21.4841C22.4353 21.6465 22.4573 21.8135 22.5242 21.9617L22.7868 22.5361Z" fill="#E93535"/>
<path d="M18.1922 1.76297L16.9021 3.40411L18.4924 3.47715C19.4233 3.525 20.2182 3.60328 20.4214 3.68813C21.2826 4.04874 21.8321 4.61611 22.2435 5.57931C22.9322 7.21251 22.0952 9.32643 20.5202 9.94255C20.0049 10.1584 19.8206 10.1572 12.9243 10.1121L5.85336 10.0659L3.29883 13.933L0.744232 17.8105L0.724157 21.2035L7.05931 21.245L9.99497 21.2641L16.9901 21.3099L20.2686 21.3209L20.7098 20.5303C22.3372 17.6176 25.3644 15.8313 28.6525 15.8528C29.2054 15.8564 29.6613 15.8489 29.6614 15.828C29.6616 15.8072 29.5952 15.5457 29.5193 15.2529L29.3674 14.709L21.6563 14.6586C14.6242 14.6126 13.9162 14.5975 13.665 14.4288C13.1045 14.0702 13.0126 13.2135 13.4714 12.7154L13.7545 12.4144L21.1843 12.463C27.1786 12.5022 28.6142 12.4907 28.6149 12.3759C28.6153 12.3028 28.4064 11.5393 28.1398 10.6919L27.6738 9.13322L28.7083 4.77591C29.2851 2.37841 29.7529 0.366477 29.7533 0.303837C29.7537 0.230757 28.0371 0.188212 24.6132 0.165823L19.4822 0.132272L18.1922 1.76297Z" fill="#E93535"/>
<path d="M1.9131 7.14815C1.73146 6.69803 1.87034 6.17692 2.24078 5.86613C2.4845 5.65892 2.62029 5.65981 11.1655 5.71568L19.8465 5.77244L20.126 6.07704C20.5789 6.58114 20.4768 7.43658 19.9122 7.78786C19.659 7.95325 18.8927 7.95868 11.1331 7.90794C10.6303 7.90465 10.1556 7.90167 9.70747 7.89885L9.7026 7.89882C3.09082 7.85725 2.26969 7.85208 2.03057 7.4479C1.99666 7.39059 1.97446 7.32525 1.94911 7.25065C1.9381 7.21826 1.9265 7.18413 1.9131 7.14815Z" fill="#494949"/>
<path d="M30.0764 7.99005L29.8177 9.08459L30.8072 12.3485C31.3494 14.1477 31.7956 15.7898 31.7944 15.9986C31.7921 16.38 31.8016 16.3849 32.5932 16.7922L32.6238 16.8079C33.6005 17.3154 34.4599 17.9579 35.1248 18.7035L35.5969 19.2391L37.8084 19.2535C39.0208 19.2615 40.0199 19.2576 40.0201 19.2367C40.0201 19.227 40.1083 18.6356 40.2519 17.6725L40.252 17.6716L40.253 17.6652C40.4205 16.5412 40.6632 14.9135 40.9293 13.1141C41.4341 9.76609 41.8384 7.01248 41.8385 6.9916C41.8386 6.97072 39.2489 6.94335 36.0869 6.92267L30.3351 6.88506L30.0764 7.99005Z" fill="#494949"/>
</svg>
